<mxfile host="app.diagrams.net" agent="Mozilla/5.0 (Windows NT 10.0; Win64; x64) AppleWebKit/537.36 (KHTML, like Gecko) Chrome/131.0.0.0 Safari/537.36" version="25.0.1">
  <diagram name="Страница — 1" id="i8iB9iJnGBKzG6_9LXSC">
    <mxGraphModel dx="1858" dy="1150" grid="1" gridSize="10" guides="1" tooltips="1" connect="1" arrows="1" fold="1" page="1" pageScale="1" pageWidth="1169" pageHeight="826" math="0" shadow="0">
      <root>
        <mxCell id="0" />
        <mxCell id="1" parent="0" />
        <mxCell id="B0qu9K6X8MOppLqb8AyA-3" style="edgeStyle=orthogonalEdgeStyle;rounded=0;orthogonalLoop=1;jettySize=auto;html=1;exitX=1;exitY=0.3333333333333333;exitDx=0;exitDy=0;exitPerimeter=0;entryX=0;entryY=0.5;entryDx=0;entryDy=0;" edge="1" parent="1" source="_ez2GbapAwy16mK7dTrn-1" target="_ez2GbapAwy16mK7dTrn-2">
          <mxGeometry relative="1" as="geometry" />
        </mxCell>
        <mxCell id="_ez2GbapAwy16mK7dTrn-1" value="Пользователь" style="shape=umlActor;verticalLabelPosition=bottom;verticalAlign=top;html=1;" parent="1" vertex="1">
          <mxGeometry x="142" y="346" width="30" height="60" as="geometry" />
        </mxCell>
        <mxCell id="B0qu9K6X8MOppLqb8AyA-7" style="edgeStyle=entityRelationEdgeStyle;rounded=0;orthogonalLoop=1;jettySize=auto;html=1;exitX=1;exitY=0.5;exitDx=0;exitDy=0;entryX=0;entryY=0.5;entryDx=0;entryDy=0;curved=1;startArrow=classic;startFill=1;" edge="1" parent="1" source="_ez2GbapAwy16mK7dTrn-2" target="B0qu9K6X8MOppLqb8AyA-6">
          <mxGeometry relative="1" as="geometry" />
        </mxCell>
        <mxCell id="_ez2GbapAwy16mK7dTrn-2" value="Главная форма приложения" style="ellipse;whiteSpace=wrap;html=1;" parent="1" vertex="1">
          <mxGeometry x="230" y="331" width="140" height="70" as="geometry" />
        </mxCell>
        <mxCell id="B0qu9K6X8MOppLqb8AyA-8" style="edgeStyle=entityRelationEdgeStyle;rounded=0;orthogonalLoop=1;jettySize=auto;html=1;exitX=0;exitY=0.5;exitDx=0;exitDy=0;entryX=1;entryY=0.5;entryDx=0;entryDy=0;curved=1;startArrow=classic;startFill=1;" edge="1" parent="1" source="B0qu9K6X8MOppLqb8AyA-5" target="_ez2GbapAwy16mK7dTrn-2">
          <mxGeometry relative="1" as="geometry" />
        </mxCell>
        <mxCell id="B0qu9K6X8MOppLqb8AyA-10" style="edgeStyle=orthogonalEdgeStyle;rounded=0;orthogonalLoop=1;jettySize=auto;html=1;exitX=1;exitY=0.5;exitDx=0;exitDy=0;entryX=0;entryY=0.5;entryDx=0;entryDy=0;startArrow=classic;startFill=1;" edge="1" parent="1" source="B0qu9K6X8MOppLqb8AyA-5" target="B0qu9K6X8MOppLqb8AyA-9">
          <mxGeometry relative="1" as="geometry" />
        </mxCell>
        <mxCell id="B0qu9K6X8MOppLqb8AyA-5" value="Список услуг детейлинг центра" style="ellipse;whiteSpace=wrap;html=1;" vertex="1" parent="1">
          <mxGeometry x="430" y="250" width="140" height="70" as="geometry" />
        </mxCell>
        <mxCell id="B0qu9K6X8MOppLqb8AyA-13" style="edgeStyle=entityRelationEdgeStyle;rounded=0;orthogonalLoop=1;jettySize=auto;html=1;exitX=1;exitY=0.5;exitDx=0;exitDy=0;entryX=0;entryY=0.5;entryDx=0;entryDy=0;curved=1;startArrow=classic;startFill=1;" edge="1" parent="1" source="B0qu9K6X8MOppLqb8AyA-6" target="B0qu9K6X8MOppLqb8AyA-12">
          <mxGeometry relative="1" as="geometry" />
        </mxCell>
        <mxCell id="B0qu9K6X8MOppLqb8AyA-14" style="edgeStyle=orthogonalEdgeStyle;rounded=0;orthogonalLoop=1;jettySize=auto;html=1;exitX=1;exitY=0.5;exitDx=0;exitDy=0;entryX=0;entryY=0.5;entryDx=0;entryDy=0;" edge="1" parent="1" source="B0qu9K6X8MOppLqb8AyA-6" target="B0qu9K6X8MOppLqb8AyA-11">
          <mxGeometry relative="1" as="geometry" />
        </mxCell>
        <mxCell id="B0qu9K6X8MOppLqb8AyA-6" value="Список пользователей" style="ellipse;whiteSpace=wrap;html=1;" vertex="1" parent="1">
          <mxGeometry x="430" y="400" width="140" height="70" as="geometry" />
        </mxCell>
        <mxCell id="B0qu9K6X8MOppLqb8AyA-9" value="Информация об услуге" style="ellipse;whiteSpace=wrap;html=1;" vertex="1" parent="1">
          <mxGeometry x="630" y="250" width="140" height="70" as="geometry" />
        </mxCell>
        <mxCell id="B0qu9K6X8MOppLqb8AyA-17" style="edgeStyle=orthogonalEdgeStyle;rounded=0;orthogonalLoop=1;jettySize=auto;html=1;exitX=0.5;exitY=0;exitDx=0;exitDy=0;entryX=0.5;entryY=0;entryDx=0;entryDy=0;" edge="1" parent="1" source="B0qu9K6X8MOppLqb8AyA-11" target="B0qu9K6X8MOppLqb8AyA-6">
          <mxGeometry relative="1" as="geometry" />
        </mxCell>
        <mxCell id="B0qu9K6X8MOppLqb8AyA-11" value="Добавление пользователя" style="ellipse;whiteSpace=wrap;html=1;" vertex="1" parent="1">
          <mxGeometry x="630" y="400" width="140" height="70" as="geometry" />
        </mxCell>
        <mxCell id="B0qu9K6X8MOppLqb8AyA-16" style="edgeStyle=orthogonalEdgeStyle;rounded=0;orthogonalLoop=1;jettySize=auto;html=1;exitX=1;exitY=0.5;exitDx=0;exitDy=0;entryX=0;entryY=0.5;entryDx=0;entryDy=0;startArrow=classic;startFill=1;" edge="1" parent="1" source="B0qu9K6X8MOppLqb8AyA-12" target="B0qu9K6X8MOppLqb8AyA-15">
          <mxGeometry relative="1" as="geometry" />
        </mxCell>
        <mxCell id="B0qu9K6X8MOppLqb8AyA-20" style="edgeStyle=entityRelationEdgeStyle;rounded=0;orthogonalLoop=1;jettySize=auto;html=1;exitX=1;exitY=0.5;exitDx=0;exitDy=0;entryX=0;entryY=0.5;entryDx=0;entryDy=0;startArrow=classic;startFill=1;curved=1;" edge="1" parent="1" source="B0qu9K6X8MOppLqb8AyA-12" target="B0qu9K6X8MOppLqb8AyA-19">
          <mxGeometry relative="1" as="geometry" />
        </mxCell>
        <mxCell id="B0qu9K6X8MOppLqb8AyA-12" value="Список автомобилей пользователя" style="ellipse;whiteSpace=wrap;html=1;" vertex="1" parent="1">
          <mxGeometry x="630" y="510" width="140" height="70" as="geometry" />
        </mxCell>
        <mxCell id="B0qu9K6X8MOppLqb8AyA-18" style="edgeStyle=orthogonalEdgeStyle;rounded=0;orthogonalLoop=1;jettySize=auto;html=1;exitX=0.5;exitY=0;exitDx=0;exitDy=0;entryX=0.5;entryY=0;entryDx=0;entryDy=0;" edge="1" parent="1" source="B0qu9K6X8MOppLqb8AyA-15" target="B0qu9K6X8MOppLqb8AyA-12">
          <mxGeometry relative="1" as="geometry" />
        </mxCell>
        <mxCell id="B0qu9K6X8MOppLqb8AyA-15" value="Добавление автомобиля пользователю" style="ellipse;whiteSpace=wrap;html=1;" vertex="1" parent="1">
          <mxGeometry x="830" y="510" width="140" height="70" as="geometry" />
        </mxCell>
        <mxCell id="B0qu9K6X8MOppLqb8AyA-23" style="edgeStyle=orthogonalEdgeStyle;rounded=0;orthogonalLoop=1;jettySize=auto;html=1;exitX=1;exitY=0.5;exitDx=0;exitDy=0;entryX=0;entryY=0.5;entryDx=0;entryDy=0;startArrow=classic;startFill=1;" edge="1" parent="1" source="B0qu9K6X8MOppLqb8AyA-19" target="B0qu9K6X8MOppLqb8AyA-21">
          <mxGeometry relative="1" as="geometry" />
        </mxCell>
        <mxCell id="B0qu9K6X8MOppLqb8AyA-25" style="edgeStyle=entityRelationEdgeStyle;rounded=0;orthogonalLoop=1;jettySize=auto;html=1;exitX=1;exitY=0.5;exitDx=0;exitDy=0;entryX=0;entryY=0.5;entryDx=0;entryDy=0;curved=1;" edge="1" parent="1" source="B0qu9K6X8MOppLqb8AyA-19" target="B0qu9K6X8MOppLqb8AyA-24">
          <mxGeometry relative="1" as="geometry" />
        </mxCell>
        <mxCell id="B0qu9K6X8MOppLqb8AyA-19" value="Список заявок на оказание услуги" style="ellipse;whiteSpace=wrap;html=1;" vertex="1" parent="1">
          <mxGeometry x="830" y="620" width="140" height="70" as="geometry" />
        </mxCell>
        <mxCell id="B0qu9K6X8MOppLqb8AyA-22" style="edgeStyle=orthogonalEdgeStyle;rounded=0;orthogonalLoop=1;jettySize=auto;html=1;exitX=0.5;exitY=0;exitDx=0;exitDy=0;entryX=0.5;entryY=0;entryDx=0;entryDy=0;" edge="1" parent="1" source="B0qu9K6X8MOppLqb8AyA-21" target="B0qu9K6X8MOppLqb8AyA-19">
          <mxGeometry relative="1" as="geometry" />
        </mxCell>
        <mxCell id="B0qu9K6X8MOppLqb8AyA-27" style="edgeStyle=orthogonalEdgeStyle;rounded=0;orthogonalLoop=1;jettySize=auto;html=1;exitX=1;exitY=0.5;exitDx=0;exitDy=0;entryX=0;entryY=0.5;entryDx=0;entryDy=0;startArrow=classic;startFill=1;" edge="1" parent="1" source="B0qu9K6X8MOppLqb8AyA-21" target="B0qu9K6X8MOppLqb8AyA-26">
          <mxGeometry relative="1" as="geometry" />
        </mxCell>
        <mxCell id="B0qu9K6X8MOppLqb8AyA-21" value="Оформление заявки" style="ellipse;whiteSpace=wrap;html=1;points=[[0,0,0,0,0],[0,0.5,0,0,0],[0,1,0,0,0],[0.5,0,0,0,0],[0.5,1,0,0,0],[0.69,0.04,0,0,0],[1,0.5,0,0,0],[1,1,0,0,0]];" vertex="1" parent="1">
          <mxGeometry x="1029" y="620" width="140" height="70" as="geometry" />
        </mxCell>
        <mxCell id="B0qu9K6X8MOppLqb8AyA-24" value="Информация о заявке" style="ellipse;whiteSpace=wrap;html=1;" vertex="1" parent="1">
          <mxGeometry x="1029" y="730" width="140" height="70" as="geometry" />
        </mxCell>
        <mxCell id="B0qu9K6X8MOppLqb8AyA-26" value="Выбор услуги" style="ellipse;whiteSpace=wrap;html=1;" vertex="1" parent="1">
          <mxGeometry x="1230" y="620" width="140" height="70" as="geometry" />
        </mxCell>
        <mxCell id="B0qu9K6X8MOppLqb8AyA-29" style="edgeStyle=orthogonalEdgeStyle;rounded=0;orthogonalLoop=1;jettySize=auto;html=1;exitX=0.5;exitY=0;exitDx=0;exitDy=0;entryX=0.69;entryY=0.04;entryDx=0;entryDy=0;entryPerimeter=0;" edge="1" parent="1" source="B0qu9K6X8MOppLqb8AyA-26" target="B0qu9K6X8MOppLqb8AyA-21">
          <mxGeometry relative="1" as="geometry">
            <Array as="points">
              <mxPoint x="1300" y="600" />
              <mxPoint x="1126" y="600" />
            </Array>
          </mxGeometry>
        </mxCell>
      </root>
    </mxGraphModel>
  </diagram>
</mxfile>
